<svg width="17" height="17" viewBox="0 0 17 17" fill="none" xmlns="http://www.w3.org/2000/svg">
<path d="M8.66957 10.6947C8.10072 10.6947 7.60575 10.5864 7.18466 10.3698C6.76356 10.1463 6.43851 9.83197 6.20949 9.42682C5.98047 9.02166 5.86597 8.54666 5.86597 8.0018C5.86597 7.58966 5.92876 7.22293 6.05435 6.9016C6.18733 6.57329 6.37571 6.29737 6.6195 6.07384C6.8633 5.84332 7.1588 5.66868 7.50602 5.54993C7.85324 5.4242 8.24109 5.36133 8.66957 5.36133C8.91336 5.36133 9.17562 5.39276 9.45635 5.45563C9.74447 5.5185 10.0141 5.62328 10.2653 5.76997C10.3835 5.83983 10.4611 5.92365 10.498 6.02145C10.5349 6.11924 10.5423 6.22053 10.5202 6.32531C10.498 6.42311 10.45 6.51042 10.3761 6.58726C10.3096 6.65712 10.2247 6.70252 10.1212 6.72348C10.0178 6.73745 9.9033 6.713 9.77771 6.65013C9.61518 6.55932 9.44896 6.49296 9.27905 6.45105C9.10913 6.40215 8.9466 6.3777 8.79146 6.3777C8.54767 6.3777 8.33343 6.41612 8.14874 6.49296C7.96405 6.56281 7.80522 6.66759 7.67224 6.8073C7.54665 6.94002 7.45061 7.10767 7.38412 7.31025C7.31763 7.51282 7.28439 7.74683 7.28439 8.01228C7.28439 8.5292 7.41367 8.93784 7.67224 9.23821C7.93819 9.5316 8.31127 9.67829 8.79146 9.67829C8.9466 9.67829 9.10544 9.65733 9.26797 9.61542C9.43788 9.57351 9.6078 9.50715 9.77771 9.41634C9.9033 9.35347 10.0141 9.33251 10.1102 9.35347C10.2136 9.37443 10.2985 9.42332 10.365 9.50016C10.4315 9.57002 10.4721 9.65733 10.4869 9.76211C10.5017 9.85991 10.4869 9.9577 10.4426 10.0555C10.4057 10.1533 10.3318 10.2336 10.221 10.2965C9.97718 10.4362 9.71861 10.5375 9.44527 10.6004C9.17193 10.6632 8.91336 10.6947 8.66957 10.6947Z" fill="white"/>
<path d="M8.53271 5.02802V11.028" stroke="white" stroke-linecap="round" stroke-linejoin="round"/>
<path d="M15.1993 8.02799C15.1993 11.708 12.2126 14.6947 8.53263 14.6947C4.85263 14.6947 1.86597 11.708 1.86597 8.02799C1.86597 4.34799 4.85263 1.36133 8.53263 1.36133" stroke="white" stroke-linecap="round" stroke-linejoin="round"/>
<path d="M11.866 2.02802V4.69468H14.5326" stroke="white" stroke-linecap="round" stroke-linejoin="round"/>
<path d="M15.1993 1.36133L11.866 4.69466" stroke="white" stroke-linecap="round" stroke-linejoin="round"/>
</svg>
