<svg width="41" height="40" viewBox="0 0 41 40" fill="none" xmlns="http://www.w3.org/2000/svg">
<path d="M12.7519 29.7819L12.7435 29.7902L12.7355 29.7989C12.1836 30.3913 11.6924 30.7456 11.2905 30.9192C10.8952 31.0898 10.6272 31.0712 10.4487 30.9943C10.2653 30.9153 10.0505 30.7206 9.87497 30.2903C9.69859 29.8578 9.58329 29.2329 9.58329 28.4V13.3866C9.58329 10.6898 9.91412 9.26449 10.6601 8.46708C11.3913 7.68548 12.6913 7.33329 15.21 7.33329H25.29C27.8089 7.33329 29.1083 7.6856 29.8377 8.46665C30.5818 9.26339 30.91 10.6881 30.9033 13.385V13.3866V28.3866C30.9033 29.2201 30.7887 29.8453 30.6131 30.278C30.4383 30.7086 30.2245 30.9026 30.0424 30.9812C29.8652 31.0577 29.5979 31.0767 29.2014 30.9057C28.7986 30.732 28.3056 30.3774 27.7504 29.7847C27.0784 29.0641 26.2008 28.7062 25.317 28.7543C24.4333 28.8024 23.5998 29.2535 23.01 30.04L23.0095 30.0406L21.6651 31.8376C21.6647 31.8381 21.6644 31.8385 21.664 31.839C21.2312 32.41 20.7111 32.6433 20.2433 32.6433C19.7755 32.6433 19.2554 32.41 18.8226 31.839C18.8222 31.8385 18.8219 31.8381 18.8215 31.8376L17.4773 30.0409C17.4772 30.0408 17.4772 30.0407 17.4771 30.0406C16.2825 28.4425 14.1338 28.3243 12.7586 29.7752L12.7519 29.7819ZM16.5833 19H23.9166C24.8315 19 25.5833 18.2481 25.5833 17.3333C25.5833 16.4184 24.8315 15.6666 23.9166 15.6666H16.5833C15.6684 15.6666 14.9166 16.4184 14.9166 17.3333C14.9166 18.2481 15.6684 19 16.5833 19Z" fill="#022E64" stroke="#022E64" stroke-width="1.33333"/>
</svg>
