<svg width="33" height="32" viewBox="0 0 33 32" fill="none" xmlns="http://www.w3.org/2000/svg">
<path d="M8.75186 25.7819L8.74353 25.7902L8.7355 25.7989C8.18362 26.3913 7.69235 26.7456 7.29049 26.9192C6.89517 27.0898 6.62722 27.0712 6.44867 26.9943C6.26526 26.9153 6.05047 26.7206 5.87497 26.2903C5.69859 25.8578 5.58329 25.2329 5.58329 24.4V9.38663C5.58329 6.68979 5.91412 5.26449 6.66013 4.46708C7.39134 3.68548 8.69129 3.33329 11.21 3.33329H21.29C23.8089 3.33329 25.1083 3.6856 25.8377 4.46665C26.5818 5.26339 26.91 6.68806 26.9033 9.38497V9.38663V24.3866C26.9033 25.2201 26.7887 25.8453 26.6131 26.278C26.4383 26.7086 26.2245 26.9026 26.0424 26.9812C25.8652 27.0577 25.5979 27.0767 25.2014 26.9057C24.7986 26.732 24.3056 26.3774 23.7504 25.7847C23.0784 25.0641 22.2008 24.7062 21.317 24.7543C20.4333 24.8024 19.5998 25.2535 19.01 26.04L19.0095 26.0406L17.6651 27.8376C17.6647 27.8381 17.6644 27.8385 17.664 27.839C17.2312 28.41 16.7111 28.6433 16.2433 28.6433C15.7755 28.6433 15.2554 28.41 14.8226 27.839C14.8222 27.8385 14.8219 27.8381 14.8215 27.8376L13.4773 26.0409C13.4772 26.0408 13.4772 26.0407 13.4771 26.0406C12.2825 24.4425 10.1338 24.3243 8.75856 25.7752L8.75186 25.7819ZM12.5833 15H19.9166C20.8315 15 21.5833 14.2481 21.5833 13.3333C21.5833 12.4184 20.8315 11.6666 19.9166 11.6666H12.5833C11.6684 11.6666 10.9166 12.4184 10.9166 13.3333C10.9166 14.2481 11.6684 15 12.5833 15Z" fill="#022E64" stroke="#022E64" stroke-width="1.33333"/>
</svg>
